<?xml version="1.0" encoding="UTF-8"?>
<svg width="3405px" height="170px" viewBox="0 0 3405 170" version="1.1" xmlns="http://www.w3.org/2000/svg" xmlns:xlink="http://www.w3.org/1999/xlink">
    <title>1svg-chromecast-firetv-roku-tv</title>
    <g id="1svg-chromecast-firetv-roku-tv" stroke="none" stroke-width="1" fill="none" fill-rule="evenodd">
        <g id="svg-chromecast-firetv-roku-tv" transform="translate(0.000000, 5.000000)" fill="#FFFFFF" fill-rule="nonzero">
            <path d="M203.537253,82.0212872 C203.537253,64.8085149 215.688849,51.6462747 232.901621,51.6462747 C246.573162,51.6462747 254.164926,59.7473391 257.714115,67.8484035 L248.093107,72.4082363 C245.562519,65.8271163 239.992042,61.7765841 232.400279,61.7765841 C223.288571,61.7765841 214.678206,69.8776485 214.678206,82.5385457 C214.678206,94.6901422 223.288571,103.300507 232.400279,103.300507 C240.501343,103.300507 246.071819,99.2499751 249.111708,92.6688551 L258.732717,96.7193872 C255.191485,104.820452 247.090421,112.921516 233.41888,112.921516 C215.688849,112.404257 203.537253,99.2340595 203.537253,82.0212872 L203.537253,82.0212872 Z M276.956132,53.6675619 L276.446832,61.7686263 L276.956132,61.7686263 C279.996021,56.7074505 287.078484,52.1476176 295.179548,52.1476176 C309.861733,52.1476176 316.952154,61.7686263 316.952154,75.94151 L316.952154,110.876355 L306.320501,110.876355 L306.320501,77.4694121 C306.320501,65.8271163 300.248682,61.7765841 292.147618,61.7765841 C283.03591,61.7765841 276.956132,70.3869492 276.956132,79.4986571 L276.956132,110.892271 L266.32448,110.892271 L266.32448,27.8444245 L276.956132,27.8444245 L276.956132,53.6675619 Z M328.093107,110.884313 L328.093107,53.6675619 L338.215458,53.6675619 L338.215458,62.7792699 L338.724759,62.7792699 C341.255347,56.1981498 349.356411,52.1476176 355.436188,52.1476176 C358.97742,52.1476176 361.006665,52.6569183 363.537253,53.6675619 L359.48672,63.7899135 C357.966776,63.2806128 355.945489,62.7792699 353.916244,62.7792699 C346.825823,62.7792699 339.234059,68.8510892 339.234059,79.4906993 L339.234059,110.884313 L328.093107,110.884313 Z M422.26599,82.0212872 C422.26599,99.2340595 410.114394,112.3963 392.901621,112.3963 C375.688849,112.3963 363.537253,99.2340595 363.537253,82.0212872 C363.537253,64.8085149 375.688849,51.6462747 392.901621,51.6462747 C410.114394,51.6462747 422.26599,64.8085149 422.26599,82.0212872 L422.26599,82.0212872 Z M411.634338,82.0212872 C411.634338,68.8590471 402.52263,61.2593256 392.901621,61.2593256 C383.280613,61.2593256 374.168905,68.8510892 374.168905,82.0212872 C374.168905,95.1914851 383.280613,102.783249 392.901621,102.783249 C402.52263,102.783249 411.634338,95.1835273 411.634338,82.0212872 L411.634338,82.0212872 Z M430.876355,53.6675619 L440.998707,53.6675619 L440.998707,61.7686263 L441.508008,61.7686263 C444.547896,56.1981498 452.13966,52.1476176 459.230081,52.1476176 C468.341789,52.1476176 474.421566,56.1981498 477.453496,63.2885706 C481.504029,56.7074505 488.594449,52.1476176 497.196857,52.1476176 C510.868397,52.1476176 517.449518,61.7686263 517.449518,75.94151 L517.449518,110.876355 L506.308565,110.876355 L506.308565,77.4694121 C506.308565,65.8271163 501.748732,61.7765841 493.647667,61.7765841 C485.037302,61.7765841 478.965483,70.3869492 478.965483,79.4986571 L478.965483,110.892271 L468.333831,110.892271 L468.333831,77.4694121 C468.333831,65.8271163 463.773998,61.7765841 455.672933,61.7765841 C447.062568,61.7765841 440.990749,70.3869492 440.990749,79.4986571 L440.990749,110.892271 L430.359097,110.892271 L430.359097,53.6755197 L430.876355,53.6755197 L430.876355,53.6675619 Z M525.049239,82.0212872 C525.049239,65.8191585 536.190192,51.6462747 552.893664,51.6462747 C569.605093,51.6462747 580.738088,63.7978713 580.738088,82.0212872 L580.738088,84.0425744 L535.672933,84.0425744 C536.182234,96.1941709 544.784641,102.775291 553.896349,102.775291 C559.968169,102.775291 566.557247,100.244703 569.589177,93.1542823 L579.210186,97.2048145 C575.668955,105.305879 567.56789,112.897642 554.397692,112.897642 C536.691535,112.404257 525.049239,99.2340595 525.049239,82.0212872 L525.049239,82.0212872 Z M552.893664,61.7686263 C544.792599,61.7686263 538.72078,67.3391028 536.691535,75.4401671 L569.605093,75.4401671 C569.095792,70.3789913 565.04526,61.7686263 552.893664,61.7686263 Z M586.817865,82.0212872 C586.817865,64.8085149 598.969462,51.6462747 616.182234,51.6462747 C629.853775,51.6462747 637.445539,59.7473391 640.994728,67.8484035 L631.373719,71.8989356 C628.843131,65.3178156 623.272655,61.2672834 615.680891,61.2672834 C606.569183,61.2672834 597.958818,69.3683478 597.958818,82.029245 C597.958818,94.1808415 606.569183,102.791207 615.680891,102.791207 C623.781956,102.791207 629.352432,98.7406744 632.392321,92.1595544 L642.013329,96.2100865 C638.472098,104.311151 630.371034,112.412215 616.699493,112.412215 C598.969462,112.404257 586.817865,99.2340595 586.817865,82.0212872 L586.817865,82.0212872 Z M647.575848,93.6715408 C647.575848,81.0106436 659.218144,73.9281806 672.388342,73.9281806 C679.980105,73.9281806 685.550582,75.9494678 687.579827,77.4694121 L687.579827,75.4401671 C687.579827,66.829802 680.489406,61.7686263 672.897642,61.7686263 C666.825823,61.7686263 661.255347,64.8085149 659.226102,69.8696906 L649.605093,65.8191585 C651.62638,60.7579827 658.215458,52.1476176 672.897642,52.1476176 C686.569183,52.1476176 698.211479,60.248682 698.211479,76.4508107 L698.211479,110.876355 L688.089128,110.876355 L688.089128,102.775291 L687.579827,102.775291 C684.539938,107.335124 678.468119,112.396306 668.84711,112.396306 C657.196857,112.404257 647.575848,105.313837 647.575848,93.6715408 L647.575848,93.6715408 Z M687.579827,86.0718194 C687.579827,86.0718194 683.019994,82.5305879 673.908286,82.5305879 C662.767333,82.5305879 658.215458,88.6024072 658.215458,93.6715408 C658.215458,99.7433602 664.287277,102.783249 669.857754,102.783249 C678.969462,102.783249 687.579827,95.692828 687.579827,86.0718194 Z M704.792599,96.2021287 L714.413608,92.1515965 C717.453496,99.2420173 723.023973,102.783249 729.605093,102.783249 C736.186213,102.783249 740.746046,99.7433602 740.746046,94.6821844 C740.746046,91.6422958 739.226102,88.6103651 733.154282,87.0904208 L721.511986,84.5598329 C716.450811,83.0398886 706.320501,78.9893564 706.320501,68.8670049 C706.320501,58.7446533 716.952154,52.1555755 728.594449,52.1555755 C738.215458,52.1555755 746.817865,56.7154083 750.367055,65.3178156 L741.255347,69.3683478 C739.234059,63.7978713 733.663583,61.7765841 728.093107,61.7765841 C722.021287,61.7765841 716.952154,64.307172 716.952154,68.8670049 C716.952154,72.4082363 719.992042,74.4374813 724.543917,75.4481249 L735.68487,77.9787128 C746.825823,80.5093007 751.377698,87.5997215 751.377698,94.6901422 C751.377698,104.812494 742.26599,112.412215 729.10375,112.412215 C715.94151,112.412215 707.832488,104.303193 704.792599,96.2021287 L704.792599,96.2021287 Z M765.550582,93.1622401 L765.550582,63.2885706 L755.42823,63.2885706 L755.42823,53.6675619 L765.550582,53.6675619 L765.550582,36.4547896 L776.182234,36.4547896 L776.182234,53.6675619 L789.853775,53.6675619 L789.853775,63.2885706 L776.182234,63.2885706 L776.182234,92.1515965 C776.182234,98.7327166 778.712822,101.263304 783.773998,101.263304 C785.803243,101.263304 787.315229,101.263304 788.835174,100.252661 L792.376405,109.364369 C789.845817,110.375012 787.315229,110.884313 783.76604,110.884313 C772.131702,111.385656 765.550582,104.804536 765.550582,93.1622401 L765.550582,93.1622401 Z M153.410922,49.1156869 L98.7327166,49.1156869 C108.855068,55.6968069 115.945489,66.8377599 115.945489,80 C115.945489,82.5305879 115.436188,85.5704765 114.934845,88.1010644 L114.934845,88.6103651 C114.425545,92.6608972 112.913558,96.2021287 110.884313,99.751318 L76.4587685,160 L79.4986571,160 C123.54521,160 159.498657,124.555854 159.498657,80 C159.490699,68.8590471 157.461454,58.2273948 153.410922,49.1156869 L153.410922,49.1156869 Z M80,115.945489 C69.8776485,115.945489 60.2566398,111.385656 53.6755197,104.804536 C51.1449319,102.273948 49.1156869,99.7433602 47.0943997,96.7034716 L46.0837561,95.692828 L12.1515965,37.4654332 C4.55983289,49.6170297 0,64.2992142 0,80 C0,121.014623 30.3750124,154.429524 69.8696906,158.981399 L97.2127723,111.385656 C92.1515965,114.425545 86.0718194,115.945489 80,115.945489 L80,115.945489 Z M80,0 C53.6755197,0 30.3829703,12.6608972 15.7007858,32.4042574 L43.0438675,78.9813986 C43.5531682,79.4906993 43.5531682,80.5013429 43.5531682,81.0026858 L43.5531682,79.4827415 C43.5531682,61.7606685 56.7154083,46.5691833 73.4268378,44.0385954 L73.9361385,44.0385954 C76.9760271,43.0279519 80.0079578,43.0279519 83.0478464,43.0279519 L150.386949,43.0279519 C137.208793,17.722073 110.375012,0 80,0 Z M108.855068,80 C108.855068,96.2021287 95.692828,108.863026 79.9920422,108.863026 C63.7899135,108.863026 51.1290162,95.7007858 51.1290162,80 C51.1290162,64.2992142 64.2992142,51.136974 80,51.136974 C95.692828,50.6276733 108.855068,63.7978713 108.855068,80 Z" id="Shape"></path>
        </g>
        <g id="Fire-TV-Logo-Vector" transform="translate(929.000000, 5.000000)" fill="#FFFFFF">
            <path d="M240.851428,131.153649 C215.334387,149.985529 178.337137,160 146.480624,160 C101.833352,160 61.6277012,143.497665 31.203066,116.024358 C28.8137465,113.865464 30.9445295,110.920929 33.8163319,112.591697 C66.6421997,131.692249 107.235864,143.196388 149.161398,143.196388 C177.445532,143.196388 208.533332,137.326127 237.141525,125.192159 C241.456387,123.362131 245.073284,128.035328 240.851428,131.153649" id="Fill-1"></path>
            <path d="M251.470753,119.030967 C248.205503,114.851852 229.895922,117.051606 221.669782,118.036845 C219.176693,118.334883 218.791919,116.157284 221.036713,114.580462 C235.644124,104.32198 259.578493,107.282713 262.360842,110.719554 C265.162837,114.182939 261.622749,138.180113 247.935054,149.631582 C245.831023,151.390863 243.825851,150.452441 244.760093,148.126449 C247.842048,140.433476 254.737884,123.212799 251.470753,119.030967" id="Fill-2"></path>
            <path d="M147.370767,37.6847966 C161.741796,37.6847966 161.609393,50.2529681 161.263075,55.67126 L130.895289,55.67126 C131.445698,46.2445043 135.996942,37.6857371 147.370767,37.6847966 Z M170.390957,64.0183074 C172.21273,64.0183074 172.454128,57.991922 172.541177,55.443447 C173.228169,37.1643797 163.577781,28.2882417 147.879062,28.2882417 C139.219555,28.2874058 131.231574,31.4196256 126.230661,37.4614771 C121.592367,42.9828074 118.921939,50.7897917 118.921939,61.3161108 C118.921939,71.6677036 121.276042,79.4210788 125.776916,84.8775136 C130.415732,90.3970673 137.456094,94.249406 149.698222,94.249406 C154.337351,94.249406 163.337219,93.2639581 168.985623,90.4450334 C171.062483,89.6701557 171.089758,88.7367494 171.089758,86.7718101 L171.089758,83.3791729 C171.089758,81.5336786 170.296383,80.7904648 168.299571,81.4312672 C161.801257,83.6205711 155.275774,84.4935756 151.333041,84.4935756 C144.54714,84.4935756 138.614597,82.5242471 135.345794,78.6488136 C132.116388,74.4474403 131.045562,69.7282626 130.767379,64.0191434 C143.91407,64.0183074 157.243325,64.0191434 170.390957,64.0183074 L170.390957,64.0183074 Z" id="Fill-3"></path>
            <path d="M23.7251565,30.165191 L23.7251565,18.0696792 C23.7251565,8.39744986 33.4257057,9.6311931 39.5980795,10.4102509 C42.3506458,10.9411179 43.3906435,10.4878954 43.3906435,8.33934709 L43.3906435,4.3385119 C43.3906435,2.34107259 42.5884909,1.63223976 39.8685291,0.90438767 C24.676328,-1.90972989 11.4682945,1.11861549 11.4682945,20.4060165 L11.4682945,30.4903993 L2.58013898,31.5209919 C0.690231591,31.6882986 0,32.2692218 0,34.1662352 L0,37.3547812 C0,39.085951 0.746453331,39.7797357 2.4145043,39.7797357 L11.4682945,39.7787952 L11.4682945,89.9055973 C11.4682945,91.6293475 12.1603027,92.3195791 13.8923085,92.3195791 L21.3003065,92.3186386 C23.0314763,92.3186386 23.7251565,91.6293475 23.7251565,89.9055973 L23.7251565,39.7787952 L40.1594609,39.7787952 C41.8837336,39.7787952 42.5730247,39.085951 42.5730247,37.3547812 L42.5730247,32.588578 C42.5730247,30.8570947 41.7847708,30.165191 40.1594609,30.165191 L23.7251565,30.165191 Z" id="Fill-4"></path>
            <path d="M62.7992661,30.2445076 L55.5254478,30.2445076 C53.7931285,30.2445076 53.1012249,30.9365157 53.1012249,32.6602659 L53.1012249,89.9055973 C53.1012249,91.6293475 53.7931285,92.3195791 55.5254478,92.3195791 L62.7992661,92.3186386 C64.5304359,92.3186386 65.22328,91.6293475 65.22328,89.9055973 L65.22328,32.6602659 C65.22328,31.2804297 64.5304359,30.2454481 62.7992661,30.2445076 Z M59.1355523,4.38626903 C54.8658351,4.38626903 51.5946285,7.25932537 51.5946285,11.8359631 C51.5946285,16.4674641 54.5884884,19.2857618 59.2513399,19.2857618 C63.9083392,19.2848212 66.9094097,16.4120784 66.9094097,11.8359631 C66.9094097,6.77705151 63.7223267,4.38626903 59.1355523,4.38626903 L59.1355523,4.38626903 Z" id="Fill-5"></path>
            <path d="M271.845387,92.3186393 L264.086055,92.3186393 C262.350496,92.3186393 261.386262,91.6293475 260.698747,89.9055973 L238.176506,33.1031427 C237.488992,31.378452 237.927375,30.2462841 239.756045,30.2462841 L248.067457,30.2454481 C249.735508,30.2454481 250.407034,31.2804297 250.957129,32.6602659 L267.987927,81.1044914 L284.913597,32.6602659 C285.678234,30.9365157 286.420507,30.2462841 288.15847,30.2462841 L295.596042,30.2454481 C297.661093,30.2454481 298.143054,31.3240068 297.378417,33.0474435 L274.84792,89.9055973 C274.23178,91.2854335 273.514378,92.3195791 271.845387,92.3186393" id="Fill-6"></path>
            <path d="M200.678382,76.40078 C200.678382,90.8562464 210.64008,93.2342797 217.85078,93.2342797 C221.722765,93.2342797 224.850595,92.8364429 227.966617,92.1820553 C231.773916,91.0763263 231.725965,90.4329113 231.725965,88.7017415 C231.725965,87.2316161 231.725965,85.7641033 231.725965,84.2965905 C231.725965,82.5642712 230.892342,82.0156389 229.264629,82.4005175 C226.352489,82.8741177 224.427574,83.2127022 221.534976,83.3305797 C213.537485,82.7725424 212.800437,80.2087056 212.800437,72.4209496 L212.800437,39.7787952 L228.878078,39.7787952 C230.602351,39.7787952 231.291747,39.085951 231.291747,37.3547812 L231.291747,32.5159495 C231.291747,30.7848842 230.503493,30.0935031 228.878078,30.0935031 L212.800437,30.0935031 L212.800437,15.1746776 C212.800437,13.7949459 212.107593,12.7608003 210.375587,12.7608003 L205.505092,12.7608003 C203.609228,12.7608003 202.668088,13.4521814 202.501931,15.3420888 L200.953848,30.4059622 L191.873723,31.5209919 C189.983816,31.6882986 189.292748,32.628602 189.292748,34.525302 L189.292748,37.3547812 C189.292748,39.085951 190.32773,39.7797357 191.707566,39.7797357 L200.678382,39.7787952 C200.678382,51.9868549 200.678382,64.1941832 200.678382,76.40078" id="Fill-7"></path>
            <path d="M92.8086128,39.1821968 L91.91429,32.1883377 C91.5217829,30.4673045 90.5362304,30.2445076 89.1140712,30.2445076 L83.6797906,30.2445076 C81.9561449,30.2445076 81.2659133,30.9356797 81.2659133,32.6593254 L81.2659133,89.9047613 C81.2659133,91.628407 81.9561449,92.3195791 83.6797906,92.3195791 L90.921945,92.3186386 C92.6465312,92.3186386 93.3358223,91.628407 93.3358223,89.9047613 L93.3358223,46.5416017 C98.0671221,43.0680805 102.138705,40.7078124 111.427205,40.7078124 C113.698333,40.7480454 116.904958,41.6047477 116.904958,39.1754042 L116.904958,32.0722367 C116.904958,30.4818302 115.961206,29.6028689 112.910916,29.6028689 C105.247934,29.6020331 100.103645,31.5399066 92.8086128,39.1821968" id="Fill-8"></path>
        </g>
        <g id="g3015" transform="translate(1620.614679, 85.000000) scale(1, -1) translate(-1620.614679, -85.000000) translate(1363.000000, 5.000000)" fill="#FFFFFF" fill-rule="nonzero">
            <g id="g3021" transform="translate(0.000000, 2.935780)">
                <path d="M81.5664539,104.607111 C81.5664539,119.204446 69.7299539,130.960064 55.2565904,130.960064 L42.2094057,130.960064 L42.2094057,78.4874045 L55.2565904,78.4874045 C69.7299539,78.4874045 81.5664539,90.2507966 81.5664539,104.607111 M140.917431,0 L93.0229008,0 L54.9979976,52.3560359 L42.2094057,52.3560359 L42.2094057,0.112735747 L0,0.112735747 L0,157.06422 L60.4676282,157.06422 C95.326728,157.06422 123.779778,133.545211 123.779778,104.607111 C123.779778,86.9581353 112.871861,71.1945679 96.2709838,61.5498304 L140.917431,0" id="path3023"></path>
            </g>
            <g id="g3025" transform="translate(123.302752, 1.467890)">
                <path d="M64.4740026,97.4172026 C53.3732681,97.4172026 43.9308155,82.4218869 43.9308155,63.8590277 C43.9308155,45.2961685 53.3732681,30.2814639 64.4740026,30.2814639 C75.8322586,30.2814639 85.2591038,45.2961685 85.2591038,63.8590277 C85.2591038,82.4218869 75.8322586,97.4172026 64.4740026,97.4172026 M129.174312,63.8590277 C129.174312,28.3968703 100.156329,0 64.4740026,0 C28.8033822,0 0,28.3968703 0,63.8590277 C0,99.2940407 28.8033822,127.706422 64.4740026,127.706422 C100.156329,127.706422 129.174312,99.2940407 129.174312,63.8590277" id="path3027"></path>
            </g>
            <g id="g3029" transform="translate(259.816514, 0.000000)">
                <path d="M90.554504,126.078311 L42.0759485,77.5899596 L42.0759485,126.238532 L0,126.238532 L0,2.59870678 L42.0759485,2.59870678 L42.0759485,52.7517937 L92.6874042,2.59870678 L145.646613,2.59870678 L81.3314686,66.9450314 L134.60319,120.216566 L134.60319,46.8431552 C134.60319,22.4817445 149.248323,0 186.128746,0 C203.637278,0 219.704345,9.93370321 227.51326,18.9217116 L246.432006,2.59870678 L255.412844,2.59870678 L255.412844,126.078311 L213.336896,126.078311 L213.336896,61.7476178 L213.336896,46.1319301 C208.598419,37.8590546 201.996586,32.6577332 191.793041,32.6577332 C181.441053,32.6577332 176.690858,38.7969337 176.690858,58.4337782 L176.690858,63.6155604 L176.690858,126.078311 L90.554504,126.078311 Z" id="path3031"></path>
            </g>
        </g>
        <g id="AppleTV" transform="translate(2015.000000, 5.000000)" fill="#FFFFFF" fill-rule="nonzero">
            <path d="M108.05595,84.4350877 C108.280512,108.463158 129.164722,116.547368 129.389284,116.659649 C129.164722,117.221053 126.020863,128.112281 118.385775,139.22807 C111.761213,148.884211 104.912091,158.540351 94.0208625,158.764912 C83.3541959,158.989474 79.9857748,152.477193 67.7471783,152.477193 C55.6208625,152.477193 51.8033187,158.540351 41.6980555,158.989474 C31.3682309,159.326316 23.3963011,148.435088 16.659459,138.778947 C3.0734941,119.017544 -7.36861116,82.9754386 6.66647656,58.722807 C13.6278801,46.5964912 26.091038,38.9614035 39.5647222,38.8491228 C49.782266,38.6245614 59.5506871,45.8105263 65.8384064,45.8105263 C72.1261257,45.8105263 83.9155994,37.277193 96.2664766,38.5122807 C101.431389,38.7368421 116.02788,40.645614 125.347178,54.2315789 C124.561213,54.6807018 107.94367,64.3368421 108.05595,84.4350877 M88.0699853,25.3754386 C93.5717397,18.6385965 97.3892836,9.31929825 96.3787573,0 C88.4068274,0.336842105 78.7506871,5.27719298 72.9120906,12.0140351 C67.7471783,17.9649123 63.2559502,27.5087719 64.491038,36.6035088 C73.3612134,37.277193 82.5682309,32 88.0699853,25.3754386" id="Shape"></path>
            <path d="M207.312091,157.192982 C200.462968,159.101754 193.389284,160 186.203319,160 C169.473494,160 161.164722,150.568421 161.164722,131.592982 L161.164722,47.9438596 L146.680512,47.9438596 L146.680512,32.7859649 L161.950687,32.7859649 L161.950687,13.0245614 L182.048933,4.82807018 L182.048933,32.8982456 L205.291038,32.8982456 L205.291038,48.0561404 L182.161213,48.0561404 L182.161213,127.101754 C182.161213,133.164912 183.17174,137.319298 185.080512,139.789474 C186.989284,142.259649 190.469985,143.382456 195.298056,143.382456 C198.105073,143.382456 202.034898,142.821053 207.312091,141.810526 L207.312091,157.192982 L207.312091,157.192982 Z" id="Path"></path>
            <path d="M280.069985,158.091228 L255.368231,158.091228 L209.894547,32.7859649 L232.126126,32.7859649 L259.634898,114.301754 C260.645424,117.445614 263.340161,126.540351 267.606827,141.698246 L271.648933,128.112281 L276.140161,114.414035 L304.659459,32.6736842 L326.778757,32.6736842 L280.069985,158.091228 Z" id="Path"></path>
        </g>
        <g id="Android_tv_logo-(1)" transform="translate(2478.000000, 5.000000)" fill="#FFFFFF" fill-rule="nonzero">
            <path d="M50.3396451,51.3819866 C65.3822909,51.3819866 77.9228534,59.1131691 83.7629804,67.4681334 L83.7629804,53.4689885 L106.738552,53.4689885 L106.738552,157.911839 L91.1347348,157.911839 C87.0639217,157.911839 83.7629804,154.616695 83.7629804,150.541244 L83.7629804,143.926607 C77.9228534,152.274615 65.3822909,160 50.3396451,160 C21.7314869,160 -3.2953423e-14,135.565846 -3.2953423e-14,105.693892 C-3.2953423e-14,75.8219382 21.7314869,51.3819866 50.3396451,51.3819866 M54.5194461,72.2740349 C35.9254187,72.2740349 23.3906534,86.8923237 23.3906534,105.693892 C23.3906534,124.489663 35.9254187,139.117227 54.5194461,139.117227 C73.1076763,139.117227 85.6482387,124.489663 85.6482387,105.693892 C85.6482387,86.8923237 73.1088357,72.2740349 54.5194461,72.2740349" id="Shape"></path>
            <path d="M132.833033,53.4724668 L155.814402,53.4724668 L155.814402,67.6756741 C162.075407,57.2348674 173.98755,51.3854649 187.565817,51.3854649 C211.79243,51.3854649 227.463496,68.5139532 227.463496,95.044385 L227.463496,157.911839 L211.853881,157.911839 C207.784227,157.911839 204.482126,154.610897 204.482126,150.541244 L204.482126,98.8044668 C204.482126,82.3043979 196.122524,72.2775133 182.763393,72.2775133 C167.513207,72.2775133 155.815561,84.1838591 155.815561,106.529852 L155.815561,157.911839 L140.19899,157.911839 C136.135133,157.911839 132.833033,154.610897 132.833033,150.541244 L132.833033,53.4724668 Z" id="Path"></path>
            <path d="M295.980927,51.3819866 C311.017776,51.3819866 323.558338,59.1131691 329.404262,67.4681334 L329.404262,1.25336058 L352.374037,1.25336058 L352.374037,157.911839 L336.77022,157.911839 C332.706363,157.911839 329.404262,154.616695 329.404262,150.541244 L329.404262,143.926607 C323.558338,152.274615 311.017776,160 295.980927,160 C267.360015,160 245.636644,135.565846 245.636644,105.693892 C245.636644,75.8219382 267.361175,51.3819866 295.980927,51.3819866 M300.161888,72.2740349 C281.573657,72.2740349 269.038892,86.8923237 269.038892,105.693892 C269.038892,124.489663 281.573657,139.117227 300.161888,139.117227 C318.743161,139.117227 331.277926,124.489663 331.277926,105.693892 C331.277926,86.8923237 318.743161,72.2740349 300.161888,72.2740349" id="Shape"></path>
            <path d="M378.474315,53.4724668 L401.449887,53.4724668 L401.449887,72.0630159 C405.41635,60.1566701 417.115155,52.4289658 429.026138,52.4289658 C431.943303,52.4289658 434.87786,52.6399849 438.009522,53.264926 L438.009522,76.8665985 C434.030305,75.6120785 430.699218,74.9871374 426.525214,74.9871374 C413.36203,74.9871374 401.451046,86.0633202 401.451046,106.950731 L401.451046,157.911839 L385.841431,157.911839 C381.777575,157.911839 378.475474,154.610897 378.475474,150.541244 L378.475474,53.4724668 L378.474315,53.4724668 Z" id="Path"></path>
            <path d="M499.961014,160 C469.052516,160 445.235186,135.97397 445.235186,105.699689 C445.235186,75.410335 469.052516,51.3819866 499.961014,51.3819866 C530.882266,51.3819866 554.688,75.4045378 554.688,105.699689 C554.688,135.97397 530.882266,160 499.961014,160 M499.961014,138.702146 C518.342863,138.702146 531.297347,124.282122 531.297347,105.699689 C531.297347,87.1126184 518.341703,72.6925948 499.961014,72.6925948 C481.373943,72.6925948 468.424096,87.1126184 468.424096,105.699689 C468.424096,124.282122 481.373943,138.702146 499.961014,138.702146" id="Shape"></path>
            <path d="M584.797641,30.7067545 C576.443836,30.7067545 569.339913,23.8208077 569.339913,15.2467083 C569.339913,6.89174402 576.443836,0 584.797641,0 C593.358986,0 600.046668,6.89290347 600.046668,15.2467083 C600.046668,23.8208077 593.358986,30.7067545 584.797641,30.7067545 M573.317971,53.4689885 L596.287745,53.4689885 L596.287745,157.911839 L580.683928,157.911839 C576.613115,157.911839 573.317971,154.603941 573.317971,150.541244 L573.317971,53.4689885 Z" id="Shape"></path>
            <path d="M665.507801,51.3819866 C680.550447,51.3819866 693.085212,59.1131691 698.936933,67.4681334 L698.936933,1.25336058 L721.912505,1.25336058 L721.912505,157.911839 L706.308688,157.911839 C702.230918,157.911839 698.936933,154.616695 698.936933,150.541244 L698.936933,143.926607 C693.085212,152.274615 680.550447,160 665.507801,160 C636.899643,160 615.175113,135.565846 615.175113,105.693892 C615.175113,75.8219382 636.899643,51.3819866 665.507801,51.3819866 M669.688761,72.2740349 C651.107488,72.2740349 638.572723,86.8923237 638.572723,105.693892 C638.572723,124.489663 651.107488,139.117227 669.688761,139.117227 C688.282789,139.117227 700.817554,124.489663 700.817554,105.693892 C700.816395,86.8923237 688.282789,72.2740349 669.688761,72.2740349" id="Shape"></path>
            <path d="M761.86004,66.7573933 L739.378392,66.7573933 L739.378392,52.8985413 L761.86004,52.8985413 L761.86004,23.6955876 L776.56065,23.6955876 L776.56065,52.8985413 L807.231462,52.8985413 L807.231462,66.7573933 L776.56065,66.7573933 L776.56065,127.467119 C776.56065,140.276673 782.237295,145.316782 793.995232,145.316782 C798.193584,145.316782 803.870229,144.475025 807.231462,143.010645 L807.231462,156.241078 C802.391936,158.133293 797.357624,158.973891 791.683297,158.973891 C773.832475,158.973891 761.86004,148.673377 761.86004,128.718161 L761.86004,66.7573933 L761.86004,66.7573933 Z" id="Path"></path>
            <polygon id="Path" points="926.7529 52.8950629 877.605165 157.924593 866.05245 157.924593 816.896599 52.8950629 833.281883 52.8950629 871.722139 136.285861 910.161235 52.8950629"></polygon>
        </g>
    </g>
</svg>