<?xml version="1.0" encoding="UTF-8"?>
<svg width="3405px" height="170px" viewBox="0 0 3405 170" version="1.1" xmlns="http://www.w3.org/2000/svg" xmlns:xlink="http://www.w3.org/1999/xlink">
    <title>2svg-chromecast-firetv-roku-tv</title>
    <g id="2svg-chromecast-firetv-roku-tv" stroke="none" stroke-width="1" fill="none" fill-rule="evenodd">
        <path d="M1.49911155,162.428371 L28.1656411,162.428371 L28.1656411,48.9093282 L1.49911155,48.9093282 L1.49911155,162.428371 Z M14.778915,34.0223938 C23.132322,34.0223938 29.6650268,27.5966117 29.6650268,19.5647953 C29.6650268,11.4255079 23.132322,5 14.778915,5 C6.53270482,5 0,11.4257821 0,19.5647953 C0,27.5968859 6.53270482,34.0223938 14.778915,34.0223938 L14.778915,34.0223938 Z M116.95044,5.32049404 C71.8646879,5.32049404 43.5904791,36.0566673 43.5904791,85.2137084 C43.5904791,134.370749 71.8619463,165 116.95044,165 C161.92927,165 190.203479,134.370749 190.203479,85.2137084 C190.203479,36.0566673 161.932012,5.32049404 116.95044,5.32049404 L116.95044,5.32049404 Z M116.95044,28.8813295 C144.473448,28.8813295 162.036193,50.7286596 162.036193,85.2131601 C162.036193,119.590189 144.4729,141.438068 116.95044,141.438068 C89.3205095,141.438068 71.8646879,119.590738 71.8646879,85.2131601 C71.8646879,50.7292079 89.3210578,28.8813295 116.95044,28.8813295 Z M201.452299,118.948653 C202.63034,147.436707 225.976809,164.999452 261.531908,164.999452 C298.908257,164.999452 322.469641,146.579132 322.469641,117.235148 C322.469641,94.2100226 309.189838,81.2515357 277.81158,74.0767462 L260.033893,70.0071025 C241.078138,65.5092195 233.260441,59.5119508 233.260441,49.2309188 C233.260441,36.3796288 245.040859,27.8121021 262.496954,27.8121021 C280.167444,27.8121021 292.268081,36.4868257 293.553896,50.9444242 L319.899109,50.9444242 C319.256531,23.7424584 296.766787,5.32131652 262.711896,5.32131652 C229.083326,5.32131652 205.201174,23.8485587 205.201174,51.2651924 C205.201174,73.3266421 218.695097,87.0349589 247.180684,93.5682121 L267.207312,98.2804888 C286.698504,102.885569 294.623397,109.311077 294.623397,120.448861 C294.623397,133.300151 281.66491,142.510311 263.031842,142.510311 C244.183283,142.510311 229.940627,133.193229 228.227122,118.949476 L201.453669,118.949476 L201.452299,118.948653 Z" id="path2" fill="#FFFFFF" fill-rule="nonzero"></path>
        <g id="Android_(operating_system)-Logo.wine" transform="translate(1517.000000, 5.000000)" fill="#FFFFFF" fill-rule="nonzero">
            <path d="M978.64579,48.3546022 L1001.83617,8.18236595 C1003.14488,5.93013267 1002.35338,3.06978848 1000.13171,1.76107979 C997.910046,0.452371096 995.019137,1.21330363 993.740993,3.46513996 L970.246159,44.1545881 C952.32078,35.9681131 932.143961,31.4029148 910.444483,31.4029148 C888.745402,31.4029148 868.568187,35.9681131 850.642807,44.1545881 L827.147973,3.4655369 C826.524824,2.38547036 825.496823,1.5983756 824.2916,1.27853738 C823.086377,0.958699157 821.803375,1.13250762 820.726687,1.76147672 C819.646539,2.38455072 818.859374,3.41255264 818.539527,4.61780736 C818.219681,5.82306208 818.39355,7.10610021 819.022627,8.18276289 L842.212612,48.3549992 C802.223364,70.0235156 775.137818,110.499807 770.663916,157.884827 L1050.22505,157.884827 C1045.75155,110.499807 1018.6656,70.0235156 978.64579,48.3549992 L978.64579,48.3546022 Z M846.260598,118.625154 C839.77858,118.625154 834.543745,113.360152 834.543745,106.908301 C834.543745,100.426283 839.808748,95.1914484 846.260598,95.1914484 C852.742616,95.1914484 857.977594,100.456451 857.977594,106.908301 C858.009206,113.360152 852.743013,118.625154 846.260598,118.625154 Z M974.598201,118.625154 C968.116183,118.625154 962.881348,113.360152 962.881348,106.908301 C962.881348,100.426283 968.14635,95.1914484 974.598201,95.1914484 C981.080616,95.1914484 986.315196,100.456451 986.315196,106.908301 C986.346809,113.360152 981.080616,118.625154 974.598201,118.625154 Z" id="Shape"></path>
            <g id="Group">
                <path d="M50.2975681,51.0841204 C25.4992032,51.0841204 0,70.9557294 0,105.738338 C0,137.536082 22.4199807,159.996038 50.2975681,159.996038 C73.3092638,159.996038 83.5650553,144.550226 83.5650553,144.550226 L83.5650553,151.283099 C83.5650553,154.465323 86.5736898,158.015612 90.2979283,158.015612 L106.931492,158.015612 L106.931492,53.461064 L83.5650553,53.461064 L83.5650553,66.7287313 C83.5650553,66.7287313 73.2231896,51.0841204 50.2975681,51.0841204 L50.2975681,51.0841204 Z M54.4597405,72.4636481 C74.874085,72.4636481 85.5822161,90.4171356 85.5822161,105.730415 C85.5822161,122.786786 72.8680886,138.986017 54.5029577,138.986017 C39.151143,138.986017 23.7726778,126.552081 23.7726778,105.505326 C23.7726778,86.5067032 37.0068517,72.4636481 54.4597405,72.4636481 Z M139.407025,158.016332 C135.817119,158.016332 132.674152,155.44095 132.674152,151.283099 L132.674152,53.461064 L156.040948,53.461064 L156.040948,66.3995606 C161.33577,58.440761 171.680157,51.052788 187.558141,51.052788 C213.509683,51.052788 227.32873,71.7401208 227.32873,91.0852008 L227.32873,158.016332 L211.090603,158.016332 C206.832993,158.016332 203.961933,154.451997 203.961933,150.887662 L203.961933,96.2338048 C203.961933,85.5109078 197.392205,72.4881378 182.198133,72.4881378 C165.802984,72.4881378 156.040948,87.9825691 156.040948,102.57016 L156.040948,158.016332 L139.407025,158.016332 Z M295.447613,51.0841204 C270.649608,51.0841204 245.150405,70.9557294 245.150405,105.738338 C245.150405,137.536082 267.570025,159.996038 295.447973,159.996038 C318.459308,159.996038 328.71546,144.550226 328.71546,144.550226 L328.71546,151.283099 C328.71546,154.465323 331.724094,158.015612 335.447973,158.015612 L352.081897,158.015612 L352.081897,1.18306968 L328.71546,1.18306968 L328.71546,66.728011 C328.71546,66.728011 318.373594,51.0844805 295.447613,51.0844805 L295.447613,51.0841204 Z M299.610145,72.4636481 C320.02449,72.4636481 330.732621,90.4171356 330.732621,105.730415 C330.732621,122.786786 318.018493,138.986017 299.653362,138.986017 C284.301188,138.986017 268.923082,126.552081 268.923082,105.505326 C268.923082,86.5067032 282.156896,72.4636481 299.610145,72.4636481 Z M384.557429,158.016332 C380.967524,158.016332 377.824556,155.44095 377.824556,151.283099 L377.824556,53.461064 L401.190993,53.461064 L401.190993,70.8869421 C405.21307,61.1249066 413.892155,52.2729524 429.310236,52.2729524 C433.608182,52.2729524 437.627018,53.0652669 437.627018,53.0652669 L437.627018,77.2236578 C437.627018,77.2236578 432.608786,75.2432316 426.537856,75.2432316 C410.143067,75.2432316 401.190993,90.7376629 401.190993,105.325254 L401.190993,158.016332 L384.557429,158.016332 Z M579.410266,158.016332 C575.820361,158.016332 572.677393,155.44095 572.677393,151.283099 L572.677393,53.461064 L596.04419,53.461064 L596.04419,158.016332 L579.410266,158.016332 Z M664.55959,51.0841204 C639.761225,51.0841204 614.262022,70.9557294 614.262022,105.738338 C614.262022,137.536082 636.681643,159.996038 664.55959,159.996038 C687.570926,159.996038 697.827077,144.550226 697.827077,144.550226 L697.827077,151.283099 C697.827077,154.465323 700.835712,158.015612 704.55959,158.015612 L721.193514,158.015612 L721.193514,1.18306968 L697.827077,1.18306968 L697.827077,66.728011 C697.827077,66.728011 687.485212,51.0844805 664.55959,51.0844805 L664.55959,51.0841204 Z M668.721763,72.4636481 C689.136107,72.4636481 699.844238,90.4171356 699.844238,105.730415 C699.844238,122.786786 687.130111,138.986017 668.76498,138.986017 C653.412805,138.986017 638.0347,126.552081 638.0347,105.505326 C638.0347,86.5067032 651.268514,72.4636481 668.721763,72.4636481 Z" id="Shape"></path>
                <circle id="Oval" cx="584.176758" cy="15.4548156" r="15.4548156"></circle>
                <path d="M499.250362,51.0495467 C473.280092,51.0495467 444.747405,70.4353228 444.747405,105.552504 C444.747405,137.553729 469.050573,160 499.19382,160 C536.342568,160 554.481889,130.136224 554.481889,105.755265 C554.481889,75.8374675 531.124456,51.0495467 499.250362,51.0495467 L499.250362,51.0495467 Z M499.335356,72.8706096 C517.294606,72.8706096 530.690844,87.345116 530.690844,105.618411 C530.690844,124.208271 516.470239,138.553486 499.388657,138.553486 C483.532282,138.553486 468.118523,125.649563 468.118523,105.931015 C468.118523,85.8836558 482.778503,72.8706096 499.335356,72.8706096 Z" id="Shape"></path>
            </g>
        </g>
        <g id="Samsung-Logo.wine" transform="translate(454.000000, 14.000000)" fill="#FFFFFF" fill-rule="nonzero">
            <path d="M62.3076684,100.109406 C63.5991822,103.338742 63.1896779,107.477308 62.5596711,109.985529 C61.4571593,114.437623 58.4331268,118.983775 49.4870309,118.983775 C41.107941,118.983775 36.0048862,114.155448 36.0048862,106.881605 L36.0048862,93.9329094 L0,93.9329094 L0,104.216619 C0,134.001754 23.5307524,143 48.7625231,143 C73.0177833,143 92.9889975,134.785573 96.1705316,112.493751 C97.8085492,100.955931 96.6115364,93.3999123 96.0445303,90.6095155 C90.3744695,62.6428415 39.4699234,54.3030037 35.6583825,38.6579697 C35.1291025,36.3507977 35.086199,33.9594579 35.5323812,31.6349485 C36.4773913,27.3396185 39.4069227,22.6680553 47.7860126,22.6680553 C55.6610971,22.6680553 60.2286461,27.4963824 60.2286461,34.7702258 L60.2286461,43.047358 L93.7135053,43.047358 L93.7135053,33.641526 C93.7135053,4.54615216 67.4737238,0 48.5105204,0 C24.6332642,0 5.13455508,7.86954615 1.5750169,29.6597237 C0.630006758,35.6167507 0.472505069,40.9467222 1.89002027,47.6562157 C7.71758279,74.9331287 55.377594,82.8340276 62.3076684,100.109406" id="a"></path>
            <path d="M142.777471,4.03122066 L118,137 L154.099834,137 L172.384981,16.3321596 L173.137714,16.3321596 L190.921038,137 L226.832689,137 L202.212038,4 L142.777471,4.03122066 Z M344.604086,4.03122066 L328.138045,105.685681 L327.353948,105.685681 L310.919271,4.03122066 L256.440199,4.03122066 L253.491993,137 L286.925897,137 L287.741358,17.4561033 L288.494092,17.4561033 L310.793816,137 L344.698178,137 L367.029266,17.4873239 L367.750635,17.4873239 L368.59746,137 L402,137 L399.051795,4 L344.604086,4.03122066 Z" id="Shape"></path>
            <g id="a-link" transform="translate(433.000000, 0.000000)">
                <path d="M62.3076684,100.109406 C63.5991822,103.338742 63.1896779,107.477308 62.5596711,109.985529 C61.4571593,114.437623 58.4331268,118.983775 49.4870309,118.983775 C41.107941,118.983775 36.0048862,114.155448 36.0048862,106.881605 L36.0048862,93.9329094 L0,93.9329094 L0,104.216619 C0,134.001754 23.5307524,143 48.7625231,143 C73.0177833,143 92.9889975,134.785573 96.1705316,112.493751 C97.8085492,100.955931 96.6115364,93.3999123 96.0445303,90.6095155 C90.3744695,62.6428415 39.4699234,54.3030037 35.6583825,38.6579697 C35.1291025,36.3507977 35.086199,33.9594579 35.5323812,31.6349485 C36.4773913,27.3396185 39.4069227,22.6680553 47.7860126,22.6680553 C55.6610971,22.6680553 60.2286461,27.4963824 60.2286461,34.7702258 L60.2286461,43.047358 L93.7135053,43.047358 L93.7135053,33.641526 C93.7135053,4.54615216 67.4737238,0 48.5105204,0 C24.6332642,0 5.13455508,7.86954615 1.5750169,29.6597237 C0.630006758,35.6167507 0.472505069,40.9467222 1.89002027,47.6562157 C7.71758279,74.9331287 55.377594,82.8340276 62.3076684,100.109406" id="a"></path>
            </g>
            <path d="M605.93696,118.040649 C615.217216,118.040649 618.070267,111.651488 618.728664,108.394269 C619.010834,106.953576 619.042186,105.011773 619.042186,103.289205 L619.042186,4.63305198 L652.840148,4.63305198 L652.840148,100.251222 C652.846236,103.177273 652.741653,106.102515 652.526352,109.020657 C650.174936,133.919591 630.485744,142 605.93696,142 C581.356823,142 561.667632,133.919591 559.316215,109.020657 C559.222159,107.705242 558.971341,102.694136 559.002693,100.251222 L559.002693,4.60173256 L592.800382,4.60173256 L592.800382,103.257885 C592.769029,105.011773 592.831734,106.953576 593.113904,108.394269 C593.740948,111.651488 596.625352,118.040649 605.93696,118.040649 M769.219298,4.63305198 L771.037726,109.333852 L770.316625,109.333852 L739.591454,4.63305198 L690.054954,4.63305198 L690.054954,136.613061 L722.880723,136.613061 L721.062295,28.2792092 L721.783396,28.2792092 L754.734574,136.613061 L802.295885,136.613061 L802.295885,4.63305198 L769.219298,4.63305198 Z M884.438689,116.662594 C894.095172,116.662594 897.481211,110.555309 898.076903,106.953576 C898.359073,105.481564 898.390425,103.602399 898.390425,101.94247 L898.390425,82.5244336 L884.689507,82.5244336 L884.689507,63.1063972 L932,63.1063972 L932,98.8731675 C932,101.378721 931.937296,103.195247 931.529717,107.642603 C929.335062,131.946468 908.235021,140.621946 884.564098,140.621946 C860.893175,140.621946 839.824487,131.946468 837.598479,107.642603 C837.222253,103.195247 837.128196,101.378721 837.128196,98.8731675 L837.128196,42.7487783 C837.128196,40.3685029 837.441718,36.1717015 837.692536,33.9793425 C840.670997,9.01776988 860.893175,1 884.564098,1 C908.235021,1 928.990187,8.95513105 931.43566,33.9480231 C931.874591,38.2074633 931.749182,42.7174589 931.749182,42.7174589 L931.749182,47.1961351 L898.076903,47.1961351 L898.076903,39.7107952 C898.076903,39.7107952 898.076903,36.5788538 897.669324,34.6370502 C897.04228,31.6930253 894.534103,24.928032 884.31328,24.928032 C874.594094,24.928032 871.741042,31.3485118 871.019941,34.6370502 C870.612362,36.3909374 870.455601,38.7712128 870.455601,40.9322523 L870.455601,101.911151 C870.455601,103.602399 870.518306,105.481564 870.769123,106.984896 C871.396168,110.555309 874.782207,116.662594 884.438689,116.662594" id="Shape"></path>
        </g>
        <g id="VIZIO_logo" transform="translate(2698.000000, 5.000000)" fill="#FFFFFF">
            <path d="M680.565641,45.7235778 C680.565641,33.3411567 669.28242,21.914454 656.23067,21.914454 L580.935514,21.914454 C568.157886,21.914454 556.582858,33.3411567 556.582858,45.7235778 L556.582858,112.908901 C556.582858,125.282939 567.892607,136.667724 580.935514,136.667724 L656.23067,136.667724 C669.28242,136.667724 680.565641,125.282939 680.565641,112.908901 L680.565641,45.7235778 Z M707.411923,45.7235778 L707.411923,113.378377 C707.411923,138.336039 684.261868,158.615712 656.23067,158.615712 L580.935514,158.615712 C552.656722,158.615712 529.754261,138.101301 529.754261,112.908901 L529.754261,45.7235778 C529.754261,20.5144105 552.656722,0 580.935514,0 L656.23067,0 C684.527147,0 707.411923,19.3742552 707.411923,45.7235778 L707.411923,45.7235778 Z M470.216705,158.615712 L497.30174,158.615712 L497.30174,0 L470.216705,0 L470.216705,158.615712 Z M306.60117,105.430824 L392.95848,74.1603903 C430.601638,60.3946927 437.746498,35.6885351 437.746498,0 L270.664644,0 L270.664644,21.914454 L410.440398,21.914454 C408.716081,36.8370738 398.591248,46.8721164 386.299966,51.3153684 L300.933032,82.5858017 C262.529407,96.5694703 259.60249,118.727046 259.60249,158.615712 L437.746498,158.615712 L437.746498,136.667724 L286.890906,136.667724 C287.881282,118.961784 293.301826,110.343552 306.60117,105.430824 L306.60117,105.430824 Z M201.939576,158.615712 L229.006925,158.615712 L229.006925,0 L201.939576,0 L201.939576,158.615712 Z M143.719575,0.243121333 L170.27405,0.243121333 L170.27405,56.8987756 C170.27405,65.3409543 166.330228,72.3244051 162.156498,79.056351 L122.293836,142.770908 C107.791892,166.093788 62.7651229,165.389575 48.4754021,142.770908 L7.41898255,77.6730744 C4.17373035,72.7938807 0,64.8379447 0,56.8987756 L0,0.243121333 L26.8197546,0.243121333 L26.8197546,59.229387 C26.8197546,60.1599549 27.562537,62.2977459 27.8101313,62.7336876 L69.3971097,129.944161 C75.3039992,139.501344 96.2168641,139.501344 102.123754,129.944161 L142.216324,63.9073768 C142.96795,62.4989498 143.719575,59.958751 143.719575,59.229387 L143.719575,0.243121333 Z" id="Fill-1-2"></path>
        </g>
    </g>
</svg>