<svg height="21" viewBox="0 0 38 21" width="38" xmlns="http://www.w3.org/2000/svg"><g fill="none" fill-rule="evenodd"><rect fill="#2638c4" height="19.944294" rx="4" width="37.748721" x=".001191" y=".58213"/><g fill="#fff" fill-rule="nonzero" transform="translate(4.632936 5.213875)"><path d="m8.35885214 10.5372197h-1.83098666l-4.69687882-7.4759258v7.4759258h-1.83098666v-10.5372197h1.83098666l4.71135302 7.50487417v-7.50487417h1.81651246z"/><path d="m13.9721707 10.6819617c-1.1145136 0-2.0179451-.3509994-2.7102945-1.05299826-.6923494-.70199884-1.0385241-1.6367911-1.0385241-2.8043768v-.21711304c0-.78160696.150773-1.47998724.4523189-2.09514086s.7249163-1.0940085 1.2701113-1.43656464c.545195-.34255613 1.1531115-.5138342 1.8237495-.5138342 1.0662663 0 1.8900897.34014377 2.4714702 1.0204313.5813805.68028754.8720707 1.64282203.8720707 2.88760347v.70923594h-5.1166307c.0530721.64651439.2689789 1.15793623.6477206 1.5342655.3787416.37632927.8551841.56449391 1.4293275.56449391.8057306 0 1.4618945-.32566956 1.9684916-.97700869l.9480603.90463768c-.3136078.46799922-.7321535.83106049-1.2556371 1.08918379-.5234837.2581233-1.1108951.3871849-1.7622342.3871849zm-.209876-6.70879302c-.4824734 0-.8720707.1688657-1.1687918.5065971-.2967212.3377314-.486092.80814299-.5681125 1.41123478h3.350778v-.13026783c-.0385979-.58861758-.1954018-1.03369932-.4704116-1.33524521-.2750099-.30154589-.6561639-.45231884-1.1434621-.45231884z"/><path d="m25.5271495 8.11279069 1.2447814-5.40611476h1.7151931l-2.1349449 7.83054377h-1.4474203l-1.6790076-5.37716639-1.6500591 5.37716639h-1.4474203l-2.142182-7.83054377h1.715193l1.2664928 5.34821795 1.6066365-5.34821795h1.3243896z"/></g></g></svg>