<svg height="48" viewBox="0 0 358 48" width="358" xmlns="http://www.w3.org/2000/svg"><g fill="none" fill-rule="evenodd"><g fill="#fff" fill-rule="nonzero" transform="translate(.382979 7.276596)"><path d="m18.3217845 31.2072948-10.94668644-13.4327051v13.4327051h-7.37509806v-30.75501516h7.37509806v13.29702126l10.80753364-13.29702126h8.6274732l-13.0339783 14.83477206 13.4514367 15.9202431z"/><path d="m39.983236.45227964c2.5975188 0 4.8162328.42212766 6.656142 1.26638297 1.8399091.84425532 3.2314371 2.01264438 4.1745838 3.50516718.9431467 1.49252279 1.41472 3.2187234 1.41472 5.17860181 0 2.1709423-.5179576 4.0705167-1.5538728 5.6987234-1.0359153 1.6282067-2.4738275 2.8795137-4.3137366 3.753921-1.8399092.8744073-3.9503932 1.3116109-6.3314521 1.3116109h-2.6902874v10.0406079h-7.375098v-30.75501516zm-.695764 15.01568386c1.7316792 0 3.0613615-.4598176 3.9890468-1.3794529.9276853-.9196352 1.3915279-2.0729483 1.3915279-3.4599392 0-1.41714283-.4715733-2.51768994-1.41472-3.30164131-.9431468-.78395137-2.1877912-1.17592705-3.7339333-1.17592705h-2.1800605v9.31696046z"/><path d="m73.3335222 14.6086322c1.577065.3316718 2.991785 1.1382371 4.2441602 2.4196961 1.2523751 1.2814589 1.8785627 2.9775076 1.8785627 5.0881459 0 2.8041337-1.0204538 5.0203039-3.0613615 6.6485106-2.0409076 1.6282067-4.9476548 2.44231-8.7202417 2.44231h-11.0394549v-30.75501516h10.2509224c3.4015127 0 6.0067623.65580547 7.8157486 1.96741641s2.7134795 3.23379939 2.7134795 5.76656535c0 1.59805471-.3865356 2.9548936-1.1596067 4.0705167-.773071 1.1156231-1.7471406 1.8995745-2.9222086 2.3518541zm-9.3696214-8.81945287v6.96510637h2.1336761c1.2987594 0 2.2960211-.3316717 2.9917851-.9950152.6957639-.6633434 1.0436459-1.5528267 1.0436459-2.66844983 0-1.05531915-.3324205-1.86942249-.9972617-2.44231003-.6648411-.57288754-1.6311799-.85933131-2.8990165-.85933131zm2.9222086 19.94553187c1.7007564 0 2.9531315-.3542857 3.7571254-1.0628571.803994-.7085714 1.2059909-1.6960486 1.2059909-2.9624316 0-1.206079-.4097277-2.1483283-1.229183-2.8267477-.8194553-.6784195-2.0640998-1.0176292-3.7339333-1.0176292h-2.9222086v7.8696656z"/><path d="m91.6089224 31.6595745c-1.6079878 0-3.2005143-.1507599-4.7775792-.4522797-1.577065-.3015197-2.9376701-.7085714-4.0818153-1.221155v-6.6937386c1.2059909.6331915 2.5588652 1.1683891 4.0586231 1.6055927 1.4997579.4372037 2.9608622.6558055 4.383313.6558055 1.6698335 0 2.914478-.2638298 3.7339333-.7914894.8194553-.5276595 1.229183-1.258845 1.229183-2.1935562 0-.9045593-.4329198-1.6658967-1.2987594-2.2840122s-2.4274432-1.4096048-4.6848107-2.374468c-2.6902873-1.1457751-4.6461572-2.4196961-5.8676095-3.821763-1.2214523-1.4020668-1.8321784-3.1282674-1.8321784-5.17860179 0-1.83927051.5024962-3.42978723 1.5074886-4.77155015s2.3887896-2.36693009 4.1513917-3.07550152c1.762602-.70857143 3.7571254-1.06285714 5.9835701-1.06285714 1.7316792 0 3.1695914.09799392 4.3137366.29398176 1.1441452.19598785 2.2728287.45981763 3.3860517.79148936v6.24145897c-2.2264451-.81410334-4.4838126-1.22115501-6.772103-1.22115501-1.4842965 0-2.6593645.22613981-3.5252041.67841945-.8658396.45227963-1.2987594 1.13069909-1.2987594 2.03525836 0 .57288754.2087292 1.06285714.6261875 1.46990881.4174584.4070517.9740696.7839514 1.6698336 1.1306991.6957639.3467477 2.002254.9271732 3.9194703 1.7412766 2.6284417 1.1457751 4.4915431 2.449848 5.5893041 3.9122188 1.097761 1.4623709 1.646641 3.1584195 1.646641 5.0881459 0 1.8694225-.463842 3.5202432-1.391528 4.952462-.927685 1.4322189-2.2960209 2.547842-4.1050072 3.3468693-1.8089863.7990274-3.9967774 1.1985411-6.5633734 1.1985411z"/></g><ellipse cx="139.782329" cy="21.622341" fill="#5680ff" fill-rule="nonzero" rx="21.63961" ry="21.271277"/><g fill="#fff"><g transform="translate(118.142719 .351064)"><path d="m2.31852968 21.2951636c.01274695-5.0559022 2.06818841-9.8997485 5.71414736-13.46594005 3.64595896-3.56619157 8.58377496-5.56260214 13.72717666-5.55009983 10.6516586.0652644 19.240296 8.59228018 19.200701 19.06286278-.0398695 10.4705825-8.6929812 18.9343789-19.3448383 18.9214866-10.6518571-.0129217-19.28371508-8.4976625-19.29718672-18.9683095zm15.63967902-3.7014938 3.6933703-12.33437075c-8.9613687.02556611-16.23435473 7.13264535-16.31338822 15.94125765zm-12.62001792 3.7724489 12.60798732 3.6187128 3.7054009 12.3343708c-8.9660164-.0256342-16.24090659-7.1398479-16.31338822-15.9530836zm16.42166292 15.9530836 3.753523-12.3343708 12.6079873-3.6187128c-.072671 8.8316454-7.3767267 15.9533725-16.3615103 15.9530836zm16.3735409-16.1186456c-.0857955-8.8289236-7.3914103-15.94166044-16.3735409-15.94125765l3.753523 12.39350005z"/><path d="m31.6865724 11.3953267-2.8247808 5.0991552-1.8159306-.5274988-.5340972-1.8169404zm-5.1748086 16.9737394.5340972-1.7817738 1.8159306-.5274988 2.8247808 5.0874329zm-12.0943346-2.3444392-2.8247808 5.1225995 5.1748085-2.7781603-.5340972-1.7817738zm2.3737654-11.8863064-.5340972 1.7817738-1.8396682.5743876-2.8247808-5.0991552z"/></g><g fill-rule="nonzero" transform="translate(176.519343 7.276596)"><path d="m10.028823 0c2.6000653 0 4.8209543.42634656 6.6626672 1.27903968s3.234605 2.03275949 4.1786763 3.54019911 1.4161069 3.25089251 1.4161069 5.23035871c0 2.1926394-.5184653 4.1111989-1.5553961 5.7556785s-2.4762526 2.9082926-4.3179655 3.7914391c-1.8417129.8831464-3.9542659 1.3247196-6.337659 1.3247196h-2.69292472v10.1409575h-7.38232808v-31.0623922zm-.696446 15.1657562c1.7333768 0 3.0643626-.4644132 3.9929573-1.3932397.9285948-.9288264 1.3928921-2.0936661 1.3928921-3.4945191 0-1.43130629-.4720356-2.54285268-1.4161069-3.33463915s-2.1899359-1.1876797-3.73759382-1.1876797h-2.1821976v9.41007765z"/><path d="m35.3794591 7.49151811c3.4977068 0 6.1055103.82985313 7.8234106 2.48955938 1.7179002 1.65970621 2.5768503 3.96654571 2.5768503 6.92051821v14.1607965h-5.5715683l-.7893056-1.9185595c-.7738289.6699731-1.7720682 1.240973-2.9947179 1.7129995-1.2226498.4720266-2.5613738.7080399-4.0161722.7080399-2.3214869 0-4.1941529-.6319066-5.6179981-1.8957196-1.4238453-1.263813-2.1357679-3.0072659-2.1357679-5.2303587 0-2.7103459 1.0369308-4.6669721 3.1107923-5.8698785 2.0738616-1.2029063 4.6429737-1.8043595 7.7073363-1.8043595 1.1452668 0 2.2595805.09136 3.342941.2740799 0-1.3399463-.3017933-2.3677461-.9053799-3.0833992-.6035866-.7156532-1.8339746-1.0734797-3.691164-1.0734797-1.17622 0-2.4143463.1446533-3.7143789.4339598-1.3000326.2893066-2.5381589.7080399-3.7143789 1.2561997v-5.57295857c2.8476905-1.00495974 5.7108575-1.50743962 8.5895012-1.50743962zm-3.5750897 16.44479589c0 .7004265.2476252 1.263813.7428758 1.6901595.4952505.4263466 1.1916965.6395199 2.0893381.6395199 1.3928921 0 2.7857842-.4567999 4.1786763-1.3703997v-3.654399c-.7119226-.09136-1.4393219-.13704-2.1821976-.13704-1.4238453 0-2.5845887.2131733-3.4822303.6395198-.8976415.4263466-1.3464623 1.1572264-1.3464623 2.1926395z"/><path d="m57.9443109 31.5648721c-2.8476905 0-5.3394196-.4415733-7.4751875-1.3247197v-5.5729586c.8976416.4872532 1.9964787.8907598 3.2965113 1.2105197s2.5072057.4796399 3.6215194.4796399c1.17622 0 2.1048147-.1674933 2.7857842-.5024799s1.0214542-.8070131 1.0214542-1.4160797c0-.4263465-.1160744-.7841731-.348223-1.0734797-.2321487-.2893066-.6422781-.5709998-1.230388-.8450798-.58811-.2740799-1.5012282-.6242931-2.7393545-1.0506397-2.35244-.8222398-4.0316488-1.7815196-5.0376264-2.8778393s-1.5089664-2.4971727-1.5089664-4.2025589c0-1.3399464.3869145-2.5352394 1.1607434-3.5858791.7738289-1.05063976 1.8958809-1.87287955 3.3661559-2.4667194s3.2113901-.89075977 5.2233453-.89075977c2.4452995 0 4.6274971.35021324 6.5465928 1.05063973v5.25319864c-.7428757-.3045332-1.6637322-.5633865-2.7625693-.7765598-1.0988371-.2131732-2.1589827-.3197599-3.1804369-.3197599-1.17622 0-2.0970764.1446533-2.7625693.4339599s-.9982394.6623598-.9982394 1.1191597c0 .3958933.1779807.7384932.533942 1.0277998s.9131182.5862265 1.6714705.8907597c.7583524.3045333 1.5863493.6090666 2.4839909.9135998 2.2286274.8222398 3.822715 1.7815196 4.7822629 2.8778393.9595478 1.0963197 1.4393218 2.573306 1.4393218 4.4309589 0 2.1926394-.8589501 3.9437056-2.5768504 5.2531986-1.7179002 1.3094931-4.1554614 1.9642396-7.3126835 1.9642396z"/><path d="m78.5591139 31.5648721c-2.8476905 0-5.3394197-.4415733-7.4751876-1.3247197v-5.5729586c.8976416.4872532 1.9964787.8907598 3.2965113 1.2105197s2.5072058.4796399 3.6215194.4796399c1.17622 0 2.1048148-.1674933 2.7857842-.5024799.6809695-.3349866 1.0214542-.8070131 1.0214542-1.4160797 0-.4263465-.1160743-.7841731-.348223-1.0734797s-.642278-.5709998-1.230388-.8450798c-.58811-.2740799-1.5012282-.6242931-2.7393545-1.0506397-2.3524399-.8222398-4.0316487-1.7815196-5.0376264-2.8778393-1.0059776-1.0963197-1.5089664-2.4971727-1.5089664-4.2025589 0-1.3399464.3869145-2.5352394 1.1607434-3.5858791.773829-1.05063976 1.8958809-1.87287955 3.3661559-2.4667194s3.2113901-.89075977 5.2233453-.89075977c2.4452995 0 4.6274971.35021324 6.5465929 1.05063973v5.25319864c-.7428758-.3045332-1.6637323-.5633865-2.7625693-.7765598-1.0988371-.2131732-2.1589828-.3197599-3.180437-.3197599-1.17622 0-2.0970764.1446533-2.7625693.4339599s-.9982393.6623598-.9982393 1.1191597c0 .3958933.1779806.7384932.5339419 1.0277998.3559614.2893066.9131182.5862265 1.6714706.8907597.7583523.3045333 1.5863493.6090666 2.4839908.9135998 2.2286274.8222398 3.822715 1.7815196 4.7822629 2.8778393s1.4393218 2.573306 1.4393218 4.4309589c0 2.1926394-.8589501 3.9437056-2.5768504 5.2531986-1.7179002 1.3094931-4.1554614 1.9642396-7.3126834 1.9642396z"/><path d="m103.631171 7.49151811c3.838192 0 6.825172 1.02018641 8.96094 3.06055919 2.135767 2.0403729 3.203651 5.0095721 3.203651 8.9075978 0 2.3753594-.456559 4.4842522-1.369677 6.3266784s-2.213151 3.2661192-3.900098 4.2710789c-1.686947 1.0049598-3.660211 1.5074397-5.919791 1.5074397-1.795283 0-3.358418-.27408-4.6894034-.8222398v9.8211975h-6.9644605v-31.19943216c3.8072384-1.24858635 7.3668519-1.87287953 10.6788389-1.87287953zm-.417867 18.13495539c1.640517 0 2.94055-.5786131 3.900098-1.7358395s1.439322-2.710346 1.439322-4.6593588c0-1.9185596-.45656-3.3955459-1.369678-4.4309589-.913118-1.0354131-2.158982-1.5531196-3.737593-1.5531196-1.114314 0-2.290534.1827199-3.5286604.5481598v11.1002372c.9905014.4872532 2.0893384.7308798 3.2965114.7308798z"/><path d="m131.210435 31.5648721c-2.321487 0-4.403087-.4872533-6.2448-1.4617597s-3.288773-2.367746-4.34118-4.1797189-1.578611-3.9665457-1.578611-6.4637184.526204-4.6441322 1.578611-6.4408784 2.514944-3.17475918 4.38761-4.13403894 3.985219-1.43891963 6.337659-1.43891963c2.290534 0 4.364395.47963987 6.221585 1.43891963 1.857189.95927976 3.311988 2.32967944 4.364395 4.11119894 1.052407 1.7815196 1.578611 3.8295057 1.578611 6.1439585 0 2.5580793-.526204 4.7735588-1.578611 6.6464383s-2.514944 3.3041858-4.38761 4.2939189-3.985219 1.4845997-6.337659 1.4845997zm.092859-5.8013586c1.454799 0 2.646495-.5557732 3.57509-1.6673196s1.392892-2.7179593 1.392892-4.8192388c0-1.8881061-.448821-3.3650924-1.346462-4.4309588-.897642-1.0658664-2.104815-1.5987996-3.62152-1.5987996-1.516704 0-2.731616.5253198-3.644734 1.5759596-.913118 1.0506397-1.369677 2.5809193-1.369677 4.5908388s.464297 3.5706524 1.392892 4.6821988 2.135768 1.6673196 3.621519 1.6673196z"/><path d="m160.971896 7.67423807c.866688 0 1.578611.07613331 2.135768.22839994v6.57791839c-.433344-.1218133-.889904-.2284-1.369677-.31976-.479774-.0913599-.982763-.1370399-1.508967-.1370399-1.08336 0-2.058385.2360132-2.925073.7080398-.866689.4720265-1.578611 1.0734797-2.135768 1.8043595v14.5262364h-6.964461v-23.02271422h5.989436l.835736 2.83215932c.58811-1.00495978 1.385153-1.78913292 2.391131-2.35251944 1.005978-.56338653 2.189936-.84507979 3.551875-.84507979z"/><path d="m175.086536 13.1101567v9.4100776c0 1.1572264.247625 2.0327595.742875 2.6265994.495251.5938398 1.330986.8907597 2.507206.8907597 1.021454 0 1.903619-.1218133 2.646495-.3654399v5.2075187c-.526203.2131733-1.214911.3806666-2.066123.5024799s-1.741115.18272-2.66971.18272c-2.723878 0-4.759048-.6775865-6.10551-2.0327595-1.346463-1.355173-2.019694-3.2965725-2.019694-5.8241986v-10.5977573h-3.621519v-5.07047872h3.621519v-5.02479874l6.964461-1.87287953v6.89767827h6.082295v5.07047872z"/></g></g></g></svg>