<svg height="26" viewBox="0 0 199 26" width="199" xmlns="http://www.w3.org/2000/svg"><g fill="none" fill-rule="evenodd"><g fill="#000" fill-rule="nonzero" transform="translate(.266334 4.337141)"><path d="m10.1734128 16.4360776-6.07829219-7.07465946v7.07465946h-4.09512061v-16.19787358h4.09512061v7.00319831l6.00102579-7.00319831h4.7905185l-7.23728866 7.81309199 7.46908786 8.38478159z"/><path d="m22.2012199.23820402c1.4423067 0 2.6742769.22232376 3.6959108.66697127 1.0216338.44464751 1.7942981 1.06000791 2.3179928 1.84608119.5236946.78607328.785542 1.69521863.785542 2.72743607 0 1.14337931-.2876028 2.14383622-.8628085 3.0013707-.5752056.85753449-1.3736253 1.51656562-2.3952592 1.97709335-1.0216339.4605278-2.193508.6907917-3.5156224.6907917h-1.4938176v5.2881293h-4.0951206v-16.19787358zm-.3863321 7.9083736c.9615377 0 1.6998614-.24217409 2.2149709-.72652228.5151095-.48434818.7726643-1.09176844.7726643-1.82226078 0-.74637261-.2618474-1.3260024-.785542-1.73888937-.5236947-.41288698-1.2148-.61933046-2.0733158-.61933046h-1.2105074v4.90700289z"/><path d="m40.7194068 7.69398997c.8756862.17468295 1.6612282.59948013 2.3566261 1.27439153.6953978.6749114 1.0430967 1.5681765 1.0430967 2.6797953 0 1.4768649-.5666204 2.6440646-1.6998614 3.5015991-1.1332409.8575345-2.7472507 1.2863017-4.8420294 1.2863017h-6.1298032v-16.19787358h5.6919601c1.8887349 0 3.3353341.34539584 4.3397977 1.03618751 1.0044635.69079167 1.5066953 1.70315877 1.5066953 3.0371013 0 .84165422-.214629 1.55626629-.6438869 2.14383622-.4292579.58756992-.9701229 1.0004569-1.622595 1.23866092zm-5.202606-4.64497846v3.66834196h1.1847519c.7211533 0 1.274896-.17468295 1.6612281-.52404885.3863322-.3493659.5794982-.81783381.5794982-1.40540374 0-.55580939-.1845809-.98457663-.5537427-1.28630173s-.9057342-.45258764-1.6097172-.45258764zm1.6225949 10.50479749c.9443675 0 1.6397653-.1865932 2.0861936-.5597795.4464282-.3731863.6696423-.8932651.6696423-1.5602364 0-.6352107-.2275067-1.1314691-.6825201-1.4887751-.4550134-.35730604-1.1461186-.53595906-2.0733158-.53595906h-1.6225949v4.14475006z"/><path d="m50.8670642 16.6742817c-.8928565 0-1.7771278-.0794014-2.652814-.2382041-.8756861-.1588026-1.6311801-.3731863-2.2664818-.6431508v-3.5254196c.6696423.3334857 1.4208437.6153604 2.2536041.8456243s1.6440578.3453959 2.4338924.3453959c.9271972 0 1.6183024-.1389524 2.0733158-.4168571s.6825201-.6630012.6825201-1.1552895c0-.4764081-.2403844-.8773848-.7211533-1.2029303s-1.3478699-.74240257-2.601303-1.25057115c-1.4938176-.6034502-2.5798402-1.27439153-3.2580677-2.01282401-.6782275-.73843247-1.0173413-1.64757783-1.0173413-2.72743607 0-.96869636.2790177-1.80638051.837053-2.51305245s1.326407-1.24660106 2.305115-1.61978736c.9787081-.37318631 2.0861936-.55977946 3.3224564-.55977946.9615377 0 1.7599575.05161087 2.3952592.15483262.6353017.10322174 1.2620183.24217409 1.8801497.41685704v3.28721553c-1.2362628-.42876725-2.4896959-.64315087-3.7602994-.64315087-.8241752 0-1.4766473.11910201-1.9574161.35730604-.4807689.23820402-.7211534.59551006-.7211534 1.07191811 0 .30172509.1158997.55977945.347699.77416307.2317992.21438363.540865.41288698.9271971.59551006.3863321.18262309 1.111778.48831825 2.1763377.9170855 1.4594769.60345019 2.4939885 1.29027179 3.1035348 2.0604648.6095462.77019301.9143194 1.6634581.9143194 2.6797953 0 .9845766-.2575548 1.8540213-.7726643 2.608334-.5151095.7543128-1.2748961 1.3418827-2.2793596 1.7627098s-2.2192635.6312407-3.6443998.6312407z"/></g><ellipse cx="77.6793" cy="11.747933" fill="#5680ff" fill-rule="nonzero" rx="11.909687" ry="11.116188"/><g fill="#fff" transform="translate(65.769613 .631745)"><path d="m1.27603791 11.1286709c.00701547-2.64217135 1.1382588-5.17352412 3.14486749-7.03718543 2.00660869-1.8636613 4.72421046-2.90696845 7.5549595-2.90043485 5.8623015.03410662 10.5891881 4.49025235 10.5673964 9.96208958-.0219428 5.4718371-4.7843138 9.8949449-10.6467246 9.8882076-5.86241079-.0067528-10.61308447-4.440806-10.62049879-9.9126769zm8.60753407-1.93436908 2.03270232-6.44583698c-4.93202499.01336063-8.93482292 3.72745967-8.9783202 8.33076536zm-6.94561788 1.97144968 6.9389967 1.8911084 2.0393235 6.445837c-4.93458292-.0133962-8.93842883-3.7312236-8.9783202-8.3369454zm9.0379108 8.3369454 2.0658082-6.445837 6.9389967-1.8911084c-.0399957 4.6153425-4.0598933 8.3370964-9.0048049 8.3369454zm9.011426-8.4234667c-.0472188-4.61392023-4.0679745-8.33097585-9.011426-8.33076536l2.0658082 6.47673744z"/><path d="m17.4391847 5.9551006-1.5546608 2.66477498-.9994249-.27566637-.2939485-.94951753zm-2.8480342 8.8703314.2939485-.9311397.9994249-.2756664 1.5546608 2.6586491zm-6.65630009-1.2251839-1.55466087 2.6770269 2.84803421-1.451843-.29394849-.9311397zm1.30643771-6.21168234-.29394848.93113977-1.01248923.30017005-1.55466087-2.66477498z"/></g><g fill="#000" fill-rule="nonzero" transform="translate(98.521253 4.337141)"><path d="m5.54890088 0c1.43860393 0 2.66741145.22393722 3.68642257.67181165 1.01901115.44787443 1.78969175 1.06770066 2.31204205 1.85947867.5223502.79177802.7835253 1.70752128.7835253 2.74722978 0 1.15167711-.2868644 2.15939459-.8605934 3.02315242-.5737289.86375783-1.370099 1.52757173-2.38911008 1.99144168-1.01901112.4638699-2.18787682.6958049-3.50659709.6958049h-1.48998264v5.3265067h-4.08460759v-16.3154258zm-.38534034 7.9657667c.95906929 0 1.69549749-.24393162 2.20928461-.73179484s.77068068-1.09969168.77068068-1.83548539c0-.75178923-.26117512-1.33562554-.78352536-1.75150895-.52235024-.4158834-1.21168129-.6238251-2.06799315-.6238251h-1.20739973v4.94261428z"/><path d="m19.5752892 3.9348968c1.9352648 0 3.3781503.4358778 4.3286565 1.30763339.9505061.87175559 1.4257592 2.08341589 1.4257592 3.63498089v7.43791472h-3.0827227l-.436719-1.0077175c-.428156.3519013-.9804771.6518172-1.6569635.8997477s-1.4171961.3718958-2.2221293.3718958c-1.2844678 0-2.3206051-.331907-3.108412-.9957209-.787807-.6638139-1.1817104-1.5795571-1.1817104-2.7472297 0-1.4236009.5737289-2.4513128 1.7211868-3.08313565 1.1474579-.63182286 2.5689356-.94773429 4.2644331-.94773429.6336708 0 1.2502153.04798654 1.8496336.14395964 0-.70380268-.1669808-1.24365133-.5009424-1.61954594-.3339616-.37589462-1.0147296-.56384192-2.0423038-.56384192-.650797 0-1.3358465.07597869-2.0551485.22793609-.7193019.1519574-1.4043514.37189574-2.0551484.65981501v-2.92717932c1.5756138-.52785201 3.1597907-.79177802 4.7525308-.79177802zm-1.9780804 8.6375783c0 .3678969.1370099.6638139.4110297.8877512.2740198.2239372.6593601.3359058 1.156021.3359058.7706807 0 1.5413614-.2399328 2.312042-.7197982v-1.9194619c-.3939034-.0479865-.79637-.0719798-1.2073997-.0719798-.7878069 0-1.4300408.1119686-1.9267017.3359058s-.7449913.6078296-.7449913 1.1516771z"/><path d="m32.0603162 16.5793518c-1.5756138 0-2.9542759-.231935-4.1359863-.695805v-2.9271793c.4966609.2559283 1.1046423.4678688 1.8239442.6358218.719302.1679529 1.3872253.2519293 2.0037698.2519293.650797 0 1.1645841-.0879753 1.5413614-.263926.3767772-.1759507.5651658-.4238811.5651658-.7437914 0-.2239373-.0642234-.4118846-.1926702-.563842s-.3553694-.2999159-.6807679-.4438755c-.3253985-.1439597-.8306225-.3279081-1.515672-.5518453-1.301594-.4318789-2.2306924-.9357377-2.7872951-1.51157622-.5566027-.57583855-.8349041-1.31163226-.8349041-2.20738113 0-.70380268.214078-1.33162666.6422339-1.88347194.4281559-.55184529 1.048982-.9837242 1.8624783-1.29563675.8134963-.31191256 1.7768471-.46786883 2.8900526-.46786883 1.3529727 0 2.5603724.18394843 3.6221991.55184528v2.75922642c-.4110297-.15995516-.9205352-.29591704-1.5285166-.40788565-.6079815-.11196861-1.1945551-.16795291-1.7597209-.16795291-.650797 0-1.1603026.0759787-1.5285167.2279361-.3682141.15195739-.5523211.34790246-.5523211.58783519 0 .2079417.0984758.38789125.2954275.53984865.1969518.15195739.505224.30791367.9248169.46786882.4195928.15995516.8777196.31991031 1.3743805.47986547 1.2330891.43187891 2.1150903.93573765 2.6460037 1.5115762.5309133.5758386.79637 1.3516211.79637 2.3273475 0 1.1516771-.4752531 2.0714193-1.4257593 2.7592264-.9505061.6878072-2.2991973 1.0317108-4.0460735 1.0317108z"/><path d="m43.4663902 16.5793518c-1.5756138 0-2.9542759-.231935-4.1359863-.695805v-2.9271793c.4966609.2559283 1.1046423.4678688 1.8239443.6358218.7193019.1679529 1.3872252.2519293 2.0037697.2519293.6507971 0 1.1645842-.0879753 1.5413614-.263926s.5651658-.4238811.5651658-.7437914c0-.2239373-.0642234-.4118846-.1926701-.563842-.1284468-.1519574-.3553695-.2999159-.680768-.4438755-.3253985-.1439597-.8306225-.3279081-1.515672-.5518453-1.301594-.4318789-2.2306924-.9357377-2.7872951-1.51157622-.5566027-.57583855-.8349041-1.31163226-.8349041-2.20738113 0-.70380268.214078-1.33162666.6422339-1.88347194.428156-.55184529 1.0489821-.9837242 1.8624783-1.29563675.8134963-.31191256 1.7768472-.46786883 2.8900526-.46786883 1.3529727 0 2.5603725.18394843 3.6221992.55184528v2.75922642c-.4110297-.15995516-.9205353-.29591704-1.5285167-.40788565s-1.1945551-.16795291-1.7597209-.16795291c-.650797 0-1.1603026.0759787-1.5285167.2279361-.3682141.15195739-.5523211.34790246-.5523211.58783519 0 .2079417.0984758.38789125.2954276.53984865.1969517.15195739.505224.30791367.9248168.46786882.4195928.15995516.8777196.31991031 1.3743805.47986547 1.2330891.43187891 2.1150903.93573765 2.6460037 1.5115762.5309133.5758386.79637 1.3516211.79637 2.3273475 0 1.1516771-.4752531 2.0714193-1.4257592 2.7592264-.9505062.6878072-2.2991974 1.0317108-4.0460736 1.0317108z"/><path d="m57.3386424 3.9348968c2.1236534 0 3.7763353.53584977 4.9580457 1.6075493 1.1817104 1.07169954 1.7725656 2.6312623 1.7725656 4.6786883 0 1.2476502-.252612 2.3553396-.757836 3.3230683s-1.224526 1.715519-2.1579059 2.2433711c-.93338.527852-2.0251776.791778-3.2753929.791778-.9933218 0-1.8581968-.1439597-2.594625-.431879v5.1585538h-3.8534034v-16.3874056c2.1065272-.65581613 4.0760445-.9837242 5.9085519-.9837242zm-.2312042 9.5253295c.9076906 0 1.6269925-.3039148 2.1579059-.9117444s.79637-1.4236009.79637-2.4473139c0-1.00771747-.252612-1.78349996-.757836-2.32734749s-1.194555-.81577129-2.0679931-.81577129c-.6165446 0-1.2673416.09597309-1.9523911.28791928v5.8303654c.5480396.2559282 1.156021.3838924 1.8239443.3838924z"/><path d="m72.5981198 16.5793518c-1.2844678 0-2.4362072-.2559283-3.4552184-.7677848-1.0190111-.5118565-1.8196627-1.2436513-2.4019547-2.1953845-.5822921-.9517331-.8734381-2.0834159-.8734381-3.3950481 0-1.31163229.291146-2.43931613.8734381-3.38305154.582292-.94373542 1.3915067-1.66753249 2.4276441-2.17139123 1.0361374-.50385873 2.2050031-.7557881 3.5065971-.7557881 1.2673415 0 2.4147994.25192937 3.4423737.7557881 1.0275742.50385874 1.8325074 1.22365694 2.4147994 2.15939459.5822921.93573765.8734381 2.01143607.8734381 3.22709528 0 1.3436233-.291146 2.507297-.8734381 3.4910212-.582292.9837242-1.3915067 1.7355134-2.4276441 2.2553677-1.0361374.5198542-2.2050031.7797814-3.5065971.7797814zm.0513787-3.0471457c.8049332 0 1.4642933-.2919182 1.9780804-.8757545.5137872-.5838363.7706807-1.4275998.7706807-2.5312903 0-.99172198-.2483304-1.76750448-.7449913-2.32734752s-1.1645841-.83976456-2.0037698-.83976456c-.8391856 0-1.5113904.27592264-2.0166144.82776793-.505224.55184528-.757836 1.35561993-.757836 2.41132395 0 1.055704.2568935 1.8754742.7706807 2.4593105.5137871.5838363 1.1817103.8757545 2.0037697.8757545z"/><path d="m89.064997 4.03086989c.4795346 0 .8734381.03998879 1.1817103.11996637v3.45503134c-.2397673-.06398206-.4923793-.11996637-.757836-.16795291-.2654566-.04798655-.543758-.07197982-.834904-.07197982-.5994183 0-1.1388948.12396524-1.6184295.37189573-.4795346.24793049-.8734381.56384192-1.1817103.94773429v7.62986091h-3.8534034v-12.09260972h3.3139269l.4624084 1.48758294c.3253985-.52785201.7663991-.93973654 1.3230018-1.23565357.5566027-.29591704 1.2116813-.44387556 1.9652358-.44387556z"/><path d="m96.8745612 6.8860694v4.9426143c0 .6078296.1370099 1.0677006.4110297 1.3796132.2740197.3119125.7364282.4678688 1.3872252.4678688.5651658 0 1.0532636-.063982 1.4642929-.1919462v2.7352332c-.2911457.1119686-.6722045.1999439-1.143176.263926-.4709715.063982-.9633508.0959731-1.4771379.0959731-1.5071089 0-2.633159-.3559003-3.3781503-1.0677007-.7449914-.7118004-1.117487-1.7315145-1.117487-3.0591423v-5.5664394h-2.0037698v-2.66325332h2.0037698v-2.63926005l3.8534034-.9837242v3.62298425h3.3653058v2.66325332z"/></g></g></svg>