<svg height="53" viewBox="0 0 138 53" width="138" xmlns="http://www.w3.org/2000/svg"><g fill="none" transform="translate(.555025)"><path d="m57.2088135 26.4165712c0 14.5894694-12.8066291 26.4165712-28.6044067 26.4165712-15.7977777 0-28.6044068-11.8271018-28.6044068-26.4165712s12.8066291-26.4165712 28.6044068-26.4165712c15.7977776 0 28.6044067 11.8271018 28.6044067 26.4165712m71.6699305-2.9351746c-3.138539-1.504277-5.641425-2.7150365-5.641425-5.0264864 0-1.6510357 1.509677-2.6416572 4.092019-2.6416572 3.019354 0 5.720882.9172421 7.786756 2.0546222v-5.9804182c-2.464902-.9738886-5.106773-1.509152-7.786756-1.5776563-7.548385 0-10.925294 4.1459341-10.925294 8.658765 0 5.2833142 3.853649 7.8149023 8.064854 9.8695245 4.171476 2.0546222 5.760609 2.9351746 5.760609 5.1365555 0 1.8711738-1.748047 2.9351746-4.687944 2.9351746-3.257559-.0489221-6.393088-1.1526662-8.85942-3.118623v6.347315c2.634283 1.5380098 5.665121 2.3992471 8.779963 2.4948984 7.310015 0 11.958231-3.5222095 11.958231-9.2091102.039729-5.9437285-5.403054-8.4386269-8.541593-9.9429039zm-55.8580501-12.9147681h-9.0580621v31.6998854h6.7538183v-10.0896626h1.3507636c8.462137 0 13.7062782-4.1459341 13.7062782-10.8234563.0397284-6.7509015-4.7276727-10.7867665-12.752798-10.7867665zm-2.3042438 5.2833142h1.9864171c3.9728343 0 6.5154482 2.1280016 6.5154482 5.3933833 0 3.5588992-2.3439722 5.5768317-6.4757199 5.5768317h-2.0261454zm36.6692599 9.355869c2.304244-1.4675873 3.416638-3.6322786 3.416638-6.5307635 0-4.9897967-3.972834-8.1084197-10.408826-8.1084197h-10.4882824v31.6998854h10.9252944c8.38268 0 12.196601-4.9897968 12.196601-9.6126967.211252-3.388868-2.121931-6.4692177-5.641425-7.4480055zm-7.5086564-9.2824896c2.6617994 0 4.3701174 1.504277 4.3701174 3.8891063s-1.867232 3.925796-4.7276725 3.925796h-2.8604406v-7.7782126h3.2179957zm-3.2179957 21.0598776v-8.2918682h4.2906611c3.416637 0 5.442783 1.5409666 5.442783 4.1092444 0 2.7517262-2.026146 4.1459341-6.078437 4.1459341h-3.6550071z" fill="#2638c4"/><g fill="#fff" transform="translate(7.468817 10.566222)"><path d="m41.9929701 16.1071773-3.1782675.5870349v5.430073c0 1.8344841-1.628862 3.2653817-3.7344642 3.2653817h-1.628862v6.3106254h-5.2441413v-6.3106254h1.6288621c2.1056021 0 3.7344642-1.4675873 3.7344642-3.2653817v-5.430073l3.1782674-.5870349c.3155432-.0700463.5797835-.2682566.7187108-.5391149s.1376035-.5852407-.0036006-.855093l-8.342952-14.71256256h5.2044129l8.342952 14.71256256c.3575551.5503452 0 1.2841389-.6753818 1.3942079z"/><path d="m31.2663175 14.7129694-8.342952-14.71276811h-8.6210503c-3.7927505-.0193765-7.43686732 1.36087165-10.12251626 3.83421661-2.68564894 2.47334497-4.19034086 5.83488566-4.17974334 9.3375849.08924096 5.1187743 3.8031812 9.577613 9.13757502 10.9702149v7.5580746h12.87198308v-6.3106254h1.628862c2.1056022 0 3.7344642-1.4675873 3.7344642-3.2653817v-5.430073l3.1782674-.5870349c.3349817-.0402505.6248451-.2349796.7694549-.5169167s.1241374-.6124238-.0543447-.8772912zm-10.8061092-.8438627c-1.7877754 0-3.2577241-1.3575182-3.2577241-3.0085539 0-1.65103572 1.4699487-3.00855396 3.2577241-3.00855396s3.2577241 1.35751824 3.2577241 3.00855396c0 1.6510357-1.4699487 3.0085539-3.2577241 3.0085539z"/></g></g></svg>